<svg width="40" height="40" viewBox="0 0 40 40" fill="none" xmlns="http://www.w3.org/2000/svg">
<rect width="40" height="40" rx="5" fill="#16A34A"/>
<path d="M10.2756 33V6.81818H20.6051C22.5909 6.81818 24.2827 7.19744 25.6804 7.95597C27.0781 8.70597 28.1435 9.75 28.8764 11.0881C29.6179 12.4176 29.9886 13.9517 29.9886 15.6903C29.9886 17.429 29.6136 18.9631 28.8636 20.2926C28.1136 21.6222 27.027 22.6577 25.6037 23.3991C24.1889 24.1406 22.4759 24.5114 20.4645 24.5114H13.8807V20.0753H19.5696C20.6349 20.0753 21.5128 19.892 22.2031 19.5256C22.902 19.1506 23.4219 18.6349 23.7628 17.9787C24.1122 17.3139 24.2869 16.5511 24.2869 15.6903C24.2869 14.821 24.1122 14.0625 23.7628 13.4148C23.4219 12.7585 22.902 12.2514 22.2031 11.8935C21.5043 11.527 20.6179 11.3438 19.544 11.3438H15.8111V33H10.2756Z" fill="white"/>
</svg>
