<svg width="88" height="21" viewBox="0 0 88 21" fill="none" xmlns="http://www.w3.org/2000/svg">
<path d="M0.264205 16V1.45455H6.00284C7.10606 1.45455 8.04593 1.66525 8.82244 2.08665C9.59896 2.50331 10.1908 3.08333 10.598 3.8267C11.0099 4.56534 11.2159 5.41761 11.2159 6.38352C11.2159 7.34943 11.0076 8.2017 10.5909 8.94034C10.1742 9.67898 9.57055 10.2543 8.77983 10.6662C7.99384 11.0781 7.04214 11.2841 5.92472 11.2841H2.26705V8.8196H5.42756C6.01941 8.8196 6.5071 8.7178 6.89062 8.5142C7.27888 8.30587 7.56771 8.01941 7.7571 7.65483C7.95123 7.28551 8.0483 6.86174 8.0483 6.38352C8.0483 5.90057 7.95123 5.47917 7.7571 5.11932C7.56771 4.75473 7.27888 4.47301 6.89062 4.27415C6.50237 4.07055 6.00994 3.96875 5.41335 3.96875H3.33949V16H0.264205ZM15.9744 16.206C15.2784 16.206 14.6581 16.0852 14.1136 15.8438C13.5691 15.5975 13.1383 15.2353 12.821 14.7571C12.5085 14.2741 12.3523 13.6728 12.3523 12.9531C12.3523 12.3471 12.4635 11.8381 12.6861 11.4261C12.9086 11.0142 13.2116 10.6828 13.5952 10.4318C13.9787 10.1809 14.4143 9.99148 14.902 9.86364C15.3944 9.7358 15.9105 9.64583 16.4503 9.59375C17.0848 9.52746 17.5961 9.46591 17.9844 9.40909C18.3726 9.34754 18.6544 9.25758 18.8295 9.1392C19.0047 9.02083 19.0923 8.84564 19.0923 8.61364V8.57102C19.0923 8.12121 18.9503 7.7732 18.6662 7.52699C18.3868 7.28078 17.9891 7.15767 17.473 7.15767C16.9285 7.15767 16.4953 7.27841 16.1733 7.51989C15.8513 7.75663 15.6383 8.05492 15.5341 8.41477L12.7358 8.1875C12.8778 7.52462 13.1572 6.9517 13.5739 6.46875C13.9905 5.98106 14.5279 5.60701 15.1861 5.34659C15.849 5.08144 16.616 4.94886 17.4872 4.94886C18.0933 4.94886 18.6733 5.01989 19.2273 5.16193C19.786 5.30398 20.2808 5.52415 20.7116 5.82244C21.1473 6.12074 21.4905 6.50426 21.7415 6.97301C21.9924 7.43703 22.1179 7.99337 22.1179 8.64205V16H19.2486V14.4872H19.1634C18.9882 14.8281 18.7538 15.1288 18.4602 15.3892C18.1667 15.6449 17.8139 15.8461 17.402 15.9929C16.9901 16.1349 16.5142 16.206 15.9744 16.206ZM16.8409 14.1179C17.286 14.1179 17.679 14.0303 18.0199 13.8551C18.3608 13.6752 18.6283 13.4337 18.8224 13.1307C19.0166 12.8277 19.1136 12.4844 19.1136 12.1009V10.9432C19.0189 11.0047 18.8887 11.0616 18.723 11.1136C18.562 11.161 18.3797 11.206 18.1761 11.2486C17.9725 11.2865 17.7689 11.322 17.5653 11.3551C17.3617 11.3835 17.1771 11.4096 17.0114 11.4332C16.6563 11.4853 16.3461 11.5682 16.081 11.6818C15.8158 11.7955 15.6098 11.9493 15.4631 12.1435C15.3163 12.3329 15.2429 12.5696 15.2429 12.8537C15.2429 13.2656 15.392 13.5805 15.6903 13.7983C15.9934 14.0114 16.3769 14.1179 16.8409 14.1179ZM25.9425 20.0909C25.5589 20.0909 25.1991 20.0601 24.8629 19.9986C24.5315 19.9418 24.2569 19.8684 24.0391 19.7784L24.7209 17.5199C25.076 17.6288 25.3956 17.688 25.6797 17.6974C25.9685 17.7069 26.2171 17.6406 26.4254 17.4986C26.6385 17.3565 26.8113 17.1151 26.9439 16.7741L27.1214 16.3125L23.2081 5.09091H26.3899L28.6484 13.1023H28.7621L31.0419 5.09091H34.245L30.005 17.179C29.8014 17.7661 29.5244 18.2775 29.174 18.7131C28.8284 19.1534 28.3904 19.492 27.8601 19.7287C27.3298 19.9702 26.6906 20.0909 25.9425 20.0909ZM43.7532 16L39.5913 1.45455H42.9506L45.3583 11.5611H45.479L48.1353 1.45455H51.0117L53.6609 11.5824H53.7887L56.1964 1.45455H59.5558L55.3938 16H52.3967L49.6268 6.49006H49.5131L46.7504 16H43.7532ZM61.1449 16V5.09091H64.1705V16H61.1449ZM62.6648 3.68466C62.215 3.68466 61.8291 3.53551 61.5071 3.23722C61.1899 2.93419 61.0312 2.57197 61.0312 2.15057C61.0312 1.7339 61.1899 1.37642 61.5071 1.07812C61.8291 0.775094 62.215 0.623579 62.6648 0.623579C63.1146 0.623579 63.4981 0.775094 63.8153 1.07812C64.1373 1.37642 64.2983 1.7339 64.2983 2.15057C64.2983 2.57197 64.1373 2.93419 63.8153 3.23722C63.4981 3.53551 63.1146 3.68466 62.6648 3.68466ZM75.6708 8.2017L72.9009 8.37216C72.8536 8.13542 72.7518 7.92235 72.5955 7.73295C72.4393 7.53883 72.2333 7.38494 71.9776 7.27131C71.7267 7.15294 71.426 7.09375 71.0756 7.09375C70.6069 7.09375 70.2115 7.19318 69.8896 7.39205C69.5676 7.58617 69.4066 7.84659 69.4066 8.1733C69.4066 8.43371 69.5108 8.65388 69.7191 8.83381C69.9274 9.01373 70.2849 9.15814 70.7915 9.26705L72.766 9.66477C73.8266 9.88258 74.6173 10.233 75.1381 10.7159C75.659 11.1989 75.9194 11.8333 75.9194 12.6193C75.9194 13.3343 75.7087 13.9616 75.2873 14.5014C74.8706 15.0412 74.2977 15.4626 73.5685 15.7656C72.8441 16.0639 72.0084 16.2131 71.0614 16.2131C69.6173 16.2131 68.4667 15.9124 67.6097 15.3111C66.7575 14.705 66.2579 13.8812 66.1112 12.8395L69.087 12.6832C69.177 13.1236 69.3948 13.4598 69.7404 13.6918C70.0861 13.919 70.5288 14.0327 71.0685 14.0327C71.5988 14.0327 72.025 13.9309 72.3469 13.7273C72.6737 13.5189 72.8394 13.2514 72.8441 12.9247C72.8394 12.6501 72.7234 12.4252 72.4961 12.25C72.2688 12.0701 71.9184 11.9328 71.445 11.8381L69.5558 11.4616C68.4904 11.2486 67.6973 10.8793 67.1765 10.3537C66.6604 9.82812 66.4023 9.15814 66.4023 8.34375C66.4023 7.64299 66.5917 7.0393 66.9705 6.53267C67.354 6.02604 67.8915 5.63542 68.5827 5.3608C69.2788 5.08617 70.0932 4.94886 71.0259 4.94886C72.4038 4.94886 73.488 5.24006 74.2788 5.82244C75.0742 6.40483 75.5382 7.19792 75.6708 8.2017ZM82.7962 16.2131C81.674 16.2131 80.7081 15.9858 79.8984 15.5312C79.0935 15.072 78.4732 14.4233 78.0376 13.5852C77.602 12.7424 77.3842 11.7457 77.3842 10.5952C77.3842 9.47301 77.602 8.48816 78.0376 7.64062C78.4732 6.79309 79.0864 6.13258 79.8771 5.65909C80.6726 5.18561 81.6054 4.94886 82.6754 4.94886C83.3951 4.94886 84.0651 5.06487 84.6854 5.29688C85.3104 5.52415 85.8549 5.86742 86.3189 6.3267C86.7876 6.78598 87.1522 7.36364 87.4126 8.05966C87.6731 8.75095 87.8033 9.56061 87.8033 10.4886V11.3196H78.5916V9.4446H84.9553C84.9553 9.009 84.8606 8.62311 84.6712 8.28693C84.4818 7.95076 84.219 7.68797 83.8828 7.49858C83.5514 7.30445 83.1655 7.20739 82.7251 7.20739C82.2659 7.20739 81.8587 7.31392 81.5036 7.52699C81.1532 7.73532 80.8786 8.01705 80.6797 8.37216C80.4808 8.72254 80.379 9.11316 80.3743 9.54403V11.3267C80.3743 11.8665 80.4737 12.3329 80.6726 12.7259C80.8762 13.1188 81.1626 13.4219 81.532 13.6349C81.9013 13.848 82.3393 13.9545 82.8459 13.9545C83.1821 13.9545 83.4898 13.9072 83.7692 13.8125C84.0485 13.7178 84.2876 13.5758 84.4865 13.3864C84.6854 13.197 84.8369 12.965 84.9411 12.6903L87.7393 12.875C87.5973 13.5473 87.3061 14.1345 86.8658 14.6364C86.4302 15.1335 85.8667 15.5218 85.1754 15.8011C84.4889 16.0758 83.6958 16.2131 82.7962 16.2131Z" fill="white"/>
</svg>
